<?xml version="1.0" encoding="utf-8"?>
<!-- Generator: Adobe Illustrator 19.2.1, SVG Export Plug-In . SVG Version: 6.00 Build 0)  -->
<svg version="1.1" id="Layer_2_copy" xmlns="http://www.w3.org/2000/svg" xmlns:xlink="http://www.w3.org/1999/xlink" x="0px"
	 y="0px" viewBox="0 0 85.3 38.8" style="enable-background:new 0 0 85.3 38.8;" xml:space="preserve">
<style type="text/css">
	.st0{fill:#FFFFFF;}
	.st1{fill:#9F8159;}
</style>
<title>mih-logo</title>
<path class="st0" d="M29,5h2.3l1.3,3.5l0.5,1.4h0.1l0.5-1.4L34.9,5h2.3v8.5h-2V11c0-0.2,0-0.5,0-0.7c0-0.3,0-0.5,0.1-0.8
	s0.1-0.5,0.1-0.8l0.1-0.7h-0.1l-0.7,2l-1.2,2.8h-0.8l-1.2-2.8l-0.7-2h-0.1l0.1,0.7c0,0.3,0.1,0.5,0.1,0.8s0,0.5,0.1,0.8s0,0.5,0,0.7
	v2.5H29L29,5L29,5z"/>
<path class="st0" d="M43.3,11.6h-2.4l-0.4,1.8h-2.3L40.7,5h2.7l2.6,8.4h-2.4L43.3,11.6z M42.9,9.9l-0.1-0.6
	c-0.1-0.4-0.2-0.8-0.3-1.3s-0.2-0.9-0.3-1.3h-0.1C42,7.1,41.9,7.5,41.8,8s-0.2,0.9-0.3,1.3l-0.1,0.6H42.9L42.9,9.9z"/>
<path class="st0" d="M46.4,9.3c0-0.6,0.1-1.3,0.3-1.9c0.4-1,1.2-1.9,2.3-2.2c0.5-0.2,1.1-0.3,1.6-0.3c0.5,0,1.1,0.1,1.6,0.3
	C52.6,5.4,53,5.6,53.3,6l-1.2,1.4c-0.2-0.2-0.4-0.3-0.6-0.4c-0.3-0.1-0.5-0.2-0.8-0.2c-0.3,0-0.5,0.1-0.8,0.2
	c-0.2,0.1-0.5,0.3-0.6,0.5c-0.2,0.2-0.3,0.5-0.4,0.8c-0.1,0.3-0.2,0.7-0.1,1c0,0.7,0.1,1.3,0.5,1.8c0.4,0.5,1.1,0.7,1.7,0.6
	c0.1,0,0.2,0,0.4,0c0.1,0,0.2-0.1,0.3-0.1v-1.2h-1.2V8.6h3.2v4c-0.4,0.3-0.8,0.6-1.2,0.7c-0.5,0.2-1.1,0.3-1.7,0.3
	c-0.6,0-1.1-0.1-1.6-0.3c-0.5-0.2-1-0.4-1.3-0.8c-0.4-0.4-0.7-0.8-0.9-1.3C46.5,10.6,46.4,9.9,46.4,9.3z"/>
<path class="st0" d="M56.6,10.5L54.1,5h2.4l0.6,1.8c0.1,0.3,0.2,0.6,0.3,0.9l0.3,0.9h0.1l0.3-0.9l0.3-0.9L59.1,5h2.3l-2.6,5.5v2.9
	h-2.2L56.6,10.5L56.6,10.5z"/>
<path class="st0" d="M65.9,11.6h-2.4l-0.4,1.8h-2.3L63.4,5h2.7l2.6,8.4h-2.4L65.9,11.6z M65.5,9.9l-0.1-0.6C65.2,8.9,65.1,8.5,65,8
	s-0.2-0.9-0.3-1.3h-0.1c-0.1,0.4-0.2,0.9-0.3,1.4s-0.2,0.9-0.3,1.3l-0.1,0.6H65.5L65.5,9.9z"/>
<path class="st0" d="M74.2,13.5l-1.5-2.8h-0.9v2.8h-2.2V5h3.2c0.4,0,0.9,0,1.3,0.1c0.4,0.1,0.8,0.2,1.1,0.4c0.3,0.2,0.6,0.5,0.7,0.8
	c0.2,0.4,0.3,0.9,0.3,1.3c0,0.5-0.1,1.1-0.4,1.5c-0.2,0.4-0.6,0.7-1,0.9l1.8,3.3L74.2,13.5L74.2,13.5z M71.9,8.9h0.8
	C73.3,9,73.9,8.6,74,8c0-0.1,0-0.2,0-0.3c0-0.3-0.1-0.6-0.3-0.8c-0.3-0.2-0.7-0.2-1-0.2h-0.8L71.9,8.9L71.9,8.9z"/>
<path class="st0" d="M29,17.1h2.2v8.4H29V17.1z"/>
<path class="st0" d="M37.7,25.6l-1.5-2.8h-0.9v2.8h-2.2v-8.4h3.2c0.4,0,0.9,0,1.3,0.1c0.4,0.1,0.8,0.2,1.1,0.4
	c0.3,0.2,0.6,0.5,0.7,0.8c0.2,0.4,0.3,0.9,0.3,1.3c0,0.5-0.1,1.1-0.4,1.5c-0.2,0.4-0.6,0.7-1,0.9l1.8,3.3L37.7,25.6L37.7,25.6z
	 M35.3,21h0.8c0.6,0.1,1.2-0.2,1.3-0.8c0-0.1,0-0.2,0-0.3c0-0.3-0.1-0.6-0.3-0.8c-0.3-0.2-0.7-0.2-1-0.2h-0.8L35.3,21L35.3,21z"/>
<path class="st0" d="M44.8,25.7c-0.6,0-1.1-0.1-1.6-0.3c-0.5-0.2-0.9-0.5-1.2-0.9c-0.4-0.4-0.6-0.9-0.8-1.4
	c-0.2-0.6-0.3-1.2-0.3-1.9c0-0.6,0.1-1.3,0.3-1.8c0.2-0.5,0.4-1,0.8-1.4c0.3-0.4,0.8-0.7,1.2-0.8c1-0.4,2.2-0.4,3.2,0
	c0.5,0.2,0.9,0.5,1.2,0.8c0.4,0.4,0.6,0.9,0.8,1.4c0.2,0.6,0.3,1.2,0.3,1.8c0,0.6-0.1,1.3-0.3,1.9c-0.2,0.5-0.4,1-0.8,1.4
	c-0.3,0.4-0.8,0.7-1.2,0.9C45.9,25.6,45.3,25.7,44.8,25.7z M44.8,23.8c0.5,0,1-0.2,1.2-0.7c0.3-0.6,0.5-1.2,0.4-1.8
	c0-0.6-0.1-1.3-0.4-1.8c-0.5-0.7-1.4-0.8-2-0.4c-0.1,0.1-0.3,0.2-0.4,0.4c-0.3,0.5-0.5,1.2-0.4,1.8c0,0.6,0.1,1.3,0.4,1.8
	C43.8,23.6,44.3,23.8,44.8,23.8z"/>
<path class="st0" d="M50.2,17.1h2.5c0.6,0,1.2,0.1,1.8,0.2c0.5,0.1,1,0.4,1.4,0.7c0.4,0.4,0.7,0.8,0.9,1.3c0.2,0.6,0.3,1.3,0.3,1.9
	c0,0.7-0.1,1.3-0.3,1.9c-0.2,0.5-0.5,1-0.9,1.3c-0.4,0.4-0.8,0.6-1.3,0.8c-0.5,0.2-1.1,0.3-1.7,0.2h-2.6V17.1L50.2,17.1z M52.5,23.8
	c0.3,0,0.6,0,0.9-0.1c0.3-0.1,0.5-0.2,0.7-0.4c0.2-0.2,0.4-0.5,0.5-0.8c0.1-0.4,0.2-0.8,0.2-1.2c0-0.4,0-0.8-0.2-1.2
	c-0.1-0.3-0.2-0.5-0.5-0.7c-0.2-0.2-0.4-0.3-0.7-0.4c-0.3-0.1-0.6-0.1-0.9-0.1h-0.1v4.9L52.5,23.8L52.5,23.8z"/>
<path class="st0" d="M62.4,23.8h-2.4l-0.4,1.8h-2.3l2.6-8.4h2.7l2.6,8.4h-2.4L62.4,23.8z M62.1,22.1l-0.1-0.6
	c-0.1-0.4-0.2-0.8-0.3-1.3s-0.2-0.9-0.3-1.3h-0.1c-0.1,0.4-0.2,0.9-0.3,1.4c-0.1,0.5-0.2,0.9-0.3,1.3l-0.1,0.6H62.1L62.1,22.1z"/>
<path class="st0" d="M66.2,17.1h2.2v6.6h3.2v1.9h-5.4V17.1z"/>
<path class="st0" d="M72.9,17.1h2.3l1.3,3.5l0.5,1.4h0.1l0.5-1.4l1.3-3.5h2.3v8.4h-2.1v-2.5c0-0.2,0-0.5,0-0.7c0-0.3,0-0.5,0.1-0.8
	s0.1-0.5,0.1-0.8l0.1-0.7h-0.1l-0.7,2l-1.2,2.8h-0.8l-1.2-2.8l-0.7-2h-0.1l0.1,0.7c0,0.3,0.1,0.5,0.1,0.8s0,0.5,0.1,0.8s0,0.5,0,0.7
	v2.5h-2.1L72.9,17.1L72.9,17.1z"/>
<path class="st0" d="M83,17.1h2.2v8.4H83V17.1z"/>
<path class="st0" d="M29,30.4h2.2v3.2h2.5v-3.2H36v8.4h-2.2v-3.4h-2.5v3.3H29V30.4L29,30.4z"/>
<path class="st0" d="M42,37.1h-2.4l-0.4,1.8h-2.3l2.6-8.4h2.7l2.6,8.4h-2.4L42,37.1z M41.5,29.7h-1.8l1-1.6h2.3L41.5,29.7z
	 M41.6,35.3l-0.1-0.6c-0.1-0.4-0.2-0.8-0.3-1.3s-0.2-0.9-0.3-1.3h-0.1c-0.1,0.4-0.2,0.9-0.3,1.4s-0.2,0.9-0.3,1.3l-0.1,0.6H41.6
	L41.6,35.3z"/>
<path class="st0" d="M45.5,37.5l3.5-5.2h-3.1v-1.9h5.9v1.3l-3.5,5.2h3.5v1.9h-6.2L45.5,37.5L45.5,37.5z"/>
<path class="st1" d="M24.8,38.8h-1.4c-3.9,0-7.7-1.3-11.4-2.6s-7.1-2.4-10.5-2.4H0V0h1.4c3.9,0,7.7,1.3,11.4,2.6S19.9,5,23.4,5h1.4
	V38.8z M2.8,31.4c3.4,0.4,6.8,1.3,10,2.5c2.9,1.1,6,1.9,9.1,2.3V7.4c-3.4-0.4-6.8-1.3-10-2.5C9,3.7,5.9,2.9,2.8,2.5V31.4L2.8,31.4z"
	/>
</svg>
