<?xml version="1.0" encoding="utf-8"?>
<!-- Generator: Adobe Illustrator 19.2.1, SVG Export Plug-In . SVG Version: 6.00 Build 0)  -->
<svg version="1.1" id="Layer_1" xmlns="http://www.w3.org/2000/svg" xmlns:xlink="http://www.w3.org/1999/xlink" x="0px" y="0px"
	 viewBox="0 0 27.2 29.7" style="enable-background:new 0 0 27.2 29.7;" xml:space="preserve">
<style type="text/css">
	.st0{fill:#FFFFFF;}
</style>
<title>download</title>
<polygon class="st0" points="13.7,6.2 17.5,3 15.2,3 15.2,0 12.3,0 12.3,3 9.8,3 "/>
<path class="st0" d="M20,5.1c-0.4,0-0.6,0.3-0.6,0.7V8H7.8V5.8c0-0.4-0.3-0.7-0.6-0.7S6.5,5.4,6.5,5.8l0,0v2.8
	c0,0.4,0.3,0.7,0.6,0.7H20c0.4,0,0.6-0.3,0.6-0.7V5.8C20.7,5.4,20.4,5.1,20,5.1z"/>
<path class="st0" d="M25.1,13.5l-0.6,0.1c-1.2,0-2.4-0.2-3.6-0.6c-1.3-0.4-2.7-0.7-4.2-0.8c-1.1,0-2.2,0.3-3.1,0.9
	c-0.9-0.6-2-1-3.1-0.9c-1.4,0.1-2.8,0.3-4.2,0.8c-1.2,0.4-2.4,0.6-3.6,0.6l-0.6-0.1L0,29.4l0.6,0.1c0.5,0.1,1,0.1,1.5,0.1l0,0
	c1.7-0.1,3.3-0.4,4.9-1c1.2-0.4,2.4-0.7,3.6-0.8c0.9,0,1.9,0.3,2.6,0.8l0.4,0.2l0.4-0.2c0.8-0.6,1.7-0.8,2.6-0.8
	c1.2,0.1,2.5,0.4,3.6,0.8c1.6,0.6,3.2,0.9,4.9,1c0.5,0,1,0,1.5-0.1l0.6-0.1L25.1,13.5z M14.2,14.3c0.7-0.6,1.6-0.8,2.5-0.8
	c1.3,0.1,2.6,0.3,3.8,0.7c1.1,0.4,2.3,0.6,3.5,0.7l1.8,13.6c-0.2,0-0.5,0-0.7,0c-1.5-0.1-3.1-0.4-4.5-0.9c-1.3-0.5-2.6-0.8-4-0.9
	c-0.8,0-1.6,0.2-2.4,0.5L14.2,14.3L14.2,14.3z M3.2,14.8c1.2-0.1,2.3-0.3,3.5-0.7s2.5-0.6,3.8-0.7c0.9,0,1.8,0.3,2.5,0.8v12.9
	c-0.7-0.3-1.5-0.5-2.4-0.5c-1.4,0.1-2.7,0.4-4,0.9c-1.4,0.5-3,0.9-4.5,0.9l0,0c-0.2,0-0.5,0-0.7,0L3.2,14.8z"/>
</svg>
