<svg id="Layer_1" data-name="Layer 1" xmlns="http://www.w3.org/2000/svg" viewBox="0 0 27.2 30.09"><defs><style>.cls-1{fill:#515151;}</style></defs><title>read</title><path class="cls-1" d="M387,75.6a12.89,12.89,0,0,0-19,0l-0.33.41L368,76.42a12.89,12.89,0,0,0,19,0l0.33-.41Zm-6.21.41a3.29,3.29,0,1,1-3.29-3.29A3.3,3.3,0,0,1,380.79,76Zm-7-2.74a4.51,4.51,0,0,0,0,5.48A10.16,10.16,0,0,1,369.36,76,10.17,10.17,0,0,1,373.83,73.27Zm7.34,5.48a4.51,4.51,0,0,0,0-5.48A10.17,10.17,0,0,1,385.64,76,10.16,10.16,0,0,1,381.17,78.74Z" transform="translate(-364 -71.41)"/><path class="cls-1" d="M377.5,78.13a2.13,2.13,0,0,0,0-4.25,2.1,2.1,0,0,0-.68.12,1,1,0,1,1-1.33,1.33,2.1,2.1,0,0,0-.12.68A2.13,2.13,0,0,0,377.5,78.13Z" transform="translate(-364 -71.41)"/><path class="cls-1" d="M389.07,85.34l-0.6.07a10.82,10.82,0,0,1-3.6-.6,16.47,16.47,0,0,0-4.16-.75,5.07,5.07,0,0,0-3.11.94,5.07,5.07,0,0,0-3.11-.94,16.47,16.47,0,0,0-4.16.75,10.86,10.86,0,0,1-3.6.6l-0.6-.07L364,101.27l0.59,0.1a8.9,8.9,0,0,0,1.52.13h0a15.65,15.65,0,0,0,4.89-1,12.44,12.44,0,0,1,3.64-.8,4.36,4.36,0,0,1,2.61.84l0.36,0.25,0.36-.25a4.36,4.36,0,0,1,2.61-.84,12.42,12.42,0,0,1,3.64.8,15.66,15.66,0,0,0,4.89,1,8.91,8.91,0,0,0,1.52-.13l0.59-.1Zm-10.85.77a3.78,3.78,0,0,1,2.49-.81,15.59,15.59,0,0,1,3.84.71,14.91,14.91,0,0,0,3.45.66l1.81,13.57c-0.24,0-.48,0-0.72,0a14.7,14.7,0,0,1-4.51-.94,13.29,13.29,0,0,0-4-.86,5.54,5.54,0,0,0-2.35.51V86.1Zm-11,.56a14.92,14.92,0,0,0,3.45-.66,15.59,15.59,0,0,1,3.84-.71,3.78,3.78,0,0,1,2.49.81V99a5.54,5.54,0,0,0-2.35-.51,13.29,13.29,0,0,0-4,.86,14.69,14.69,0,0,1-4.51.94h0c-0.24,0-.48,0-0.72,0Z" transform="translate(-364 -71.41)"/></svg>