<?xml version="1.0" encoding="utf-8"?>
<!-- Generator: Adobe Illustrator 19.2.1, SVG Export Plug-In . SVG Version: 6.00 Build 0)  -->
<svg version="1.1" id="Capa_1" xmlns="http://www.w3.org/2000/svg" xmlns:xlink="http://www.w3.org/1999/xlink" x="0px" y="0px"
	 viewBox="0 0 463 463" style="enable-background:new 0 0 463 463;" xml:space="preserve">
<style type="text/css">
	.st0{fill:#FFFFFF;}
</style>
<g>
	<path class="st0" d="M159.5,0C247.4,0,319,71.6,319,159.5c0,36.2-12.1,69.6-32.5,96.4l32.3,32.3c0.2,0.2,0.4,0.4,0.6,0.6
		c2.6-0.6,5.4-0.8,8.1-0.8c10.5,0,20.5,4.1,27.9,11.6l96,96c7.5,7.5,11.6,17.4,11.6,27.9s-4.1,20.5-11.6,27.9
		c-7.5,7.5-17.4,11.6-27.9,11.6c-10.5,0-20.5-4.1-27.9-11.6l-96-96c-7.5-7.5-11.6-17.4-11.6-27.9c0-2.8,0.3-5.5,0.8-8.1
		c-0.2-0.2-0.4-0.4-0.6-0.6l-32.3-32.3c-26.8,20.4-60.2,32.5-96.4,32.5C71.6,319,0,247.4,0,159.5S71.6,0,159.5,0z M406.2,440.8
		c4.6,4.6,10.8,7.2,17.3,7.2s12.7-2.5,17.3-7.2c4.6-4.6,7.2-10.8,7.2-17.3s-2.5-12.7-7.2-17.3l-86.7-86.7l-34.6,34.6L406.2,440.8z
		 M308.9,343.5l34.5-34.5c-4.6-3.9-10.3-5.9-16-5.9c-6.3,0-12.5,2.4-17.3,7.2c-4.6,4.6-7.2,10.8-7.2,17.3
		C303,333.4,305.1,339,308.9,343.5z M295.3,304.7c1.3-1.8,2.7-3.5,4.3-5.1c1.6-1.6,3.3-3,5.1-4.3l-27.8-27.8c-3,3.3-6.1,6.4-9.4,9.4
		L295.3,304.7z M159.5,304c79.7,0,144.5-64.8,144.5-144.5S239.2,15,159.5,15S15,79.8,15,159.5S79.8,304,159.5,304z"/>
	<path class="st0" d="M159.5,32C229.8,32,287,89.2,287,159.5S229.8,287,159.5,287S32,229.8,32,159.5S89.2,32,159.5,32z M159.5,272
		c62,0,112.5-50.5,112.5-112.5S221.5,47,159.5,47S47,97.5,47,159.5S97.5,272,159.5,272z"/>
	<path class="st0" d="M107.4,79.4c3.5-2.3,8.1-1.3,10.4,2.2c2.3,3.5,1.3,8.1-2.2,10.4C92.7,106.9,79,132.2,79,159.5
		c0,18.7,6.5,36.9,18.4,51.2c2.6,3.2,2.2,7.9-1,10.6c-1.4,1.2-3.1,1.7-4.8,1.7c-2.2,0-4.3-0.9-5.8-2.7c-14.1-17-21.8-38.6-21.8-60.8
		C64,127.1,80.2,97.2,107.4,79.4z"/>
	<path class="st0" d="M142.1,65.6c5.7-1,11.5-1.6,17.4-1.6c4.1,0,7.5,3.4,7.5,7.5s-3.4,7.5-7.5,7.5c-4.9,0-9.8,0.4-14.6,1.3
		c-0.5,0.1-0.9,0.1-1.4,0.1c-3.5,0-6.7-2.5-7.4-6.1C135.4,70.2,138.1,66.3,142.1,65.6z"/>
</g>
</svg>
