<?xml version="1.0" encoding="utf-8"?>
<!-- Generator: Adobe Illustrator 19.2.1, SVG Export Plug-In . SVG Version: 6.00 Build 0)  -->
<svg version="1.1" id="Layer_1" xmlns="http://www.w3.org/2000/svg" xmlns:xlink="http://www.w3.org/1999/xlink" x="0px" y="0px"
	 viewBox="0 0 27.2 28.3" style="enable-background:new 0 0 27.2 28.3;" xml:space="preserve">
<style type="text/css">
	.st0{fill:#FFFFFF;}
</style>
<title>upload</title>
<path class="st0" d="M25.1,1.3l-0.6,0.1c-1.2,0-2.4-0.2-3.6-0.6c-1.3-0.4-2.7-0.7-4.2-0.8c-1.1,0-2.2,0.3-3.1,0.9
	c-0.9-0.6-2-1-3.1-0.9C9.1,0.1,7.7,0.3,6.3,0.8C5.2,1.2,4,1.4,2.7,1.3L2.1,1.3L0,17.2l0.6,0.1c0.5,0.1,1,0.1,1.5,0.1l0,0
	c1.7-0.1,3.3-0.4,4.9-1c1.2-0.4,2.4-0.7,3.6-0.8c0.9,0,1.9,0.3,2.6,0.8l0.4,0.2l0.4-0.2c0.8-0.6,1.7-0.8,2.6-0.8
	c1.2,0.1,2.5,0.4,3.6,0.8c1.6,0.6,3.2,0.9,4.9,1c0.5,0,1,0,1.5-0.1l0.6-0.1L25.1,1.3z M14.2,2c0.7-0.6,1.6-0.8,2.5-0.8
	c1.3,0.1,2.6,0.3,3.8,0.7c1.1,0.4,2.3,0.6,3.5,0.7l1.8,13.6c-0.2,0-0.5,0-0.7,0c-1.5-0.1-3.1-0.4-4.5-0.9c-1.3-0.5-2.6-0.8-4-0.9
	c-0.8,0-1.6,0.2-2.4,0.5L14.2,2L14.2,2z M3.2,2.6c1.2-0.1,2.3-0.3,3.5-0.7c1.2-0.4,2.5-0.6,3.8-0.7c0.9,0,1.8,0.3,2.5,0.8v12.9
	c-0.7-0.3-1.5-0.5-2.4-0.5c-1.4,0.1-2.7,0.4-4,0.9c-1.4,0.5-3,0.9-4.5,0.9l0,0c-0.2,0-0.5,0-0.7,0L3.2,2.6z"/>
<polygon class="st0" points="12.1,25.2 15,25.2 15,22.2 17.5,22.2 13.7,19.1 9.8,22.2 12.1,22.2 "/>
<path class="st0" d="M20.1,24.2c-0.4,0-0.6,0.3-0.6,0.7V27H7.8v-2.2c0-0.4-0.3-0.6-0.7-0.6c-0.4,0-0.6,0.3-0.6,0.6v2.8
	c0,0.4,0.3,0.7,0.6,0.7h12.9c0.4,0,0.6-0.3,0.6-0.7v-2.8C20.7,24.5,20.4,24.2,20.1,24.2z"/>
</svg>
